# xmcd
#
# Track frame offsets:
#	182
#	11970
#	24645
#	37145
#	48057
#	60432
#	72045
#	82995
#	94307
#	104182
#	118932
#	130120
#	143757
#	161020
#	179170
#	191670
#	201994
#	212695
#	224995
#	240920
#	271770
#	283032
#	293195
#	310507
#
# Disc length: 4318 seconds
#
# Revision: 2
# Processed by: cddbd v1.4PL0 Copyright (c) Steve Scherf et al.
# Submitted via: EasyCDDAExtractor 5.0.4.1
#
DISCID=7410dc18
DTITLE=John Lee Hooker - Boom Boom
DYEAR=1999
DGENRE=Blues
TTITLE0=Boogie chillun
TTITLE1=Hobo blues
TTITLE2=Crawlin' king snake
TTITLE3=Tennessee blues
TTITLE4=I'm in the mood
TTITLE5=I love you honey
TTITLE6=No shoes
TTITLE7=Boom boom
TTITLE8=Dimples
TTITLE9=Moanin' blues
TTITLE10=This is hip
TTITLE11=One bourbon, one scotch, one beer
TTITLE12=You know, I know
TTITLE13=Sally Mae
TTITLE14=Frisco blues
TTITLE15=Big legs, tight skirt
TTITLE16=She's mine (keep your hands to yourself)
TTITLE17=Walkin' the boogie
TTITLE18=It serves me right to suffer
TTITLE19=Let's go out tonight
TTITLE20=Baby please don't go
TTITLE21=Want ad blues
TTITLE22=Blues before sunrise
TTITLE23=Maudie
EXTD=Remeeber Records\nCD cover ID RMB 75095\n
EXTT0=
EXTT1=
EXTT2=
EXTT3=
EXTT4=
EXTT5=
EXTT6=
EXTT7=
EXTT8=
EXTT9=
EXTT10=
EXTT11=
EXTT12=
EXTT13=
EXTT14=
EXTT15=
EXTT16=
EXTT17=
EXTT18=
EXTT19=
EXTT20=
EXTT21=
EXTT22=
EXTT23=
PLAYORDER=
